<svg width="554" height="504" fill="none" xmlns="http://www.w3.org/2000/svg"><path fill-rule="evenodd" clip-rule="evenodd" d="M241.428 208.619c0-5.751 9.051-10.403 20.207-10.403s20.206 4.652 20.206 10.403c0 5.752-9.05 10.395-20.206 10.395-11.156 0-20.207-4.635-20.207-10.395z" fill="#6558F5"/><path fill-rule="evenodd" clip-rule="evenodd" d="M209.854 450.361l6.132 19.741 25.442-5.811-2.495-25.103-29.079 11.173z" fill="#FF3274"/><path fill-rule="evenodd" clip-rule="evenodd" d="M142.325 210.945h386.942a3.738 3.738 0 013.738 3.739v6.766a3.739 3.739 0 01-3.738 3.739H142.325a3.739 3.739 0 01-3.739-3.739v-6.766a3.739 3.739 0 013.739-3.739z" fill="#6558F5"/><path d="M195.002 225.527l-78.28 240.059M258.531 225.527l-78.246 240.059M258.531 225.527l78.237 240.059M195.002 225.527l78.237 240.059" stroke="#6558F5" stroke-width="2" stroke-linecap="round" stroke-linejoin="round"/><path fill-rule="evenodd" clip-rule="evenodd" d="M124.994 426.289l-8.238 18.608 22.803 9.769 10.15-18.811-24.715-9.566z" fill="#FF3274"/><path fill-rule="evenodd" clip-rule="evenodd" d="M116.231 443.18l24.106 10.437s30.043 28.149 43.906 35.008c-.042 6.251-.846 9.152-5.65 10.936-2.148.796-40.979-14.75-40.979-14.75l-6.513-6.987-25.121-11.554 10.251-23.09z" fill="#6A3416"/><path d="M130.788 438.274a3.071 3.071 0 111.894 2.839 3.063 3.063 0 01-1.894-2.839v0zM119.175 442.275a3.082 3.082 0 011.902-2.845 3.081 3.081 0 013.357.671 3.08 3.08 0 11-5.259 2.174v0zM135.093 447.68a3.072 3.072 0 013.669-3.012 3.068 3.068 0 012.413 2.413 3.063 3.063 0 01-1.306 3.151 3.065 3.065 0 01-3.877-.381 3.07 3.07 0 01-.899-2.171z" stroke="#fff" stroke-width="2" stroke-linecap="round" stroke-linejoin="round"/><path fill-rule="evenodd" clip-rule="evenodd" d="M104.086 461.83l24.587 10.936a2.642 2.642 0 011.371 3.46l-2.149 4.829a2.614 2.614 0 01-1.475 1.366 2.63 2.63 0 01-2.01-.08l-24.604-10.937a2.607 2.607 0 01-1.401-1.441 2.62 2.62 0 01.03-2.01l2.141-4.829a2.635 2.635 0 013.51-1.294z" fill="#3C1B09"/><path fill-rule="evenodd" clip-rule="evenodd" d="M62.497 248.212c56.001-15.775 136.336-7.038 153.667 17.026 6.191 8.593 4.094 22.042 2.537 27.108-1.556 5.066-67.089 145.666-67.089 145.666l-29.384-11.174 28.876-114.184s-95.568-62.497-88.607-64.442z" fill="#C4C4C4"/><path d="M132.632 430.789l33.824-108.992M125.18 415.116l31.532 11.841" stroke="#8D8D8D" stroke-width="2" stroke-linecap="round" stroke-linejoin="round"/><path fill-rule="evenodd" clip-rule="evenodd" d="M215.479 468.283l25.256-7.206s41.081 2.732 56.153-.753c3.933 4.864 5.177 7.613 2.538 12.045-1.159 1.97-41.047 14.564-41.047 14.564l-9.465-1.277-26.719 6.995-6.716-24.368z" fill="#6A3416"/><path fill-rule="evenodd" clip-rule="evenodd" d="M217.906 490.418l25.95-7.13a2.633 2.633 0 012.778.884c.215.269.375.578.47.909l1.404 5.075a2.62 2.62 0 01-.955 2.759c-.275.209-.589.36-.923.447l-25.949 7.13a2.623 2.623 0 01-3.248-1.793l-1.404-5.075a2.62 2.62 0 01.954-2.759c.276-.208.589-.36.923-.447z" fill="#3C1B09"/><path d="M226.762 459.445a3.082 3.082 0 011.897-2.852 3.082 3.082 0 014.202 2.245 3.082 3.082 0 01-1.315 3.162 3.082 3.082 0 01-3.885-.384 3.074 3.074 0 01-.899-2.171zM232.268 449.515a3.083 3.083 0 011.897-2.851 3.081 3.081 0 014.025 4.025 3.082 3.082 0 01-2.851 1.896 3.081 3.081 0 01-3.071-3.07v0zM215.479 457.254a3.074 3.074 0 011.895-2.837 3.07 3.07 0 013.346.666 3.068 3.068 0 01-.465 4.724 3.072 3.072 0 01-4.776-2.553z" stroke="#fff" stroke-width="2" stroke-linecap="round" stroke-linejoin="round"/><path fill-rule="evenodd" clip-rule="evenodd" d="M16.603 317.255h128.394a16.608 16.608 0 0116.604 16.604 16.607 16.607 0 01-16.604 16.603H16.603A16.602 16.602 0 010 333.859a16.604 16.604 0 0116.603-16.604z" fill="#6558F5"/><path fill-rule="evenodd" clip-rule="evenodd" d="M75.421 339.12H86.18a3.213 3.213 0 013.214 3.214v118.921a3.216 3.216 0 01-3.214 3.214H75.42a3.217 3.217 0 01-3.214-3.214V342.334a3.214 3.214 0 013.214-3.214z" fill="#6558F5"/><path fill-rule="evenodd" clip-rule="evenodd" d="M71.09 426.289h19.454a5.295 5.295 0 015.295 5.295v28.706a5.293 5.293 0 01-5.337 5.295H71.048a5.295 5.295 0 01-5.295-5.295v-28.706a5.293 5.293 0 015.338-5.295z" fill="#6558F5"/><path d="M16.341 486.029v-5.608a14.834 14.834 0 0114.836-14.836H80.8" stroke="#6558F5" stroke-width="2" stroke-linecap="round" stroke-linejoin="round"/><path d="M145.116 486.029v-5.608a14.853 14.853 0 00-4.357-10.497 14.842 14.842 0 00-10.504-4.339H80.648" stroke="#6558F5" stroke-width="2" stroke-linecap="round" stroke-linejoin="round"/><path d="M56.483 486.029v-6.767c0-7.553 3.933-13.677 8.78-13.677h31.075c4.846 0 8.779 6.124 8.779 13.677v6.767M8.213 494.165a8.125 8.125 0 015.018-7.509 8.13 8.13 0 017.626 14.268 8.13 8.13 0 01-4.516 1.37 8.14 8.14 0 01-8.128-8.129v0z" stroke="#6558F5" stroke-width="2" stroke-linecap="round" stroke-linejoin="round"/><path d="M48.355 494.165a8.125 8.125 0 015.018-7.509 8.13 8.13 0 017.626 14.268 8.13 8.13 0 01-4.516 1.37 8.14 8.14 0 01-8.128-8.129v0zM105.118 486.028a8.14 8.14 0 017.523 5.017 8.138 8.138 0 01-10.627 10.638 8.13 8.13 0 01-5.025-7.518 8.135 8.135 0 018.129-8.137M137.021 494.165a8.127 8.127 0 019.714-7.972 8.126 8.126 0 015.924 11.083 8.13 8.13 0 01-7.509 5.018 8.14 8.14 0 01-8.129-8.129v0z" stroke="#6558F5" stroke-width="2" stroke-linecap="round" stroke-linejoin="round"/><path fill-rule="evenodd" clip-rule="evenodd" d="M21.416 215.115c-51.23 107.012 52.17 109.897 88.455 109.364 36.285-.533 45.834-3.265 55.654-5.642 3.138 9.507 40.751 132.623 40.751 132.623l33.029-9.98s-25.247-156.408-30.948-166.972c-15.656-29.045-108.264-30.618-119.978-29.916-11.715.702-60.467-43.043-66.963-29.477z" fill="#C4C4C4"/><path d="M24.613 229.739c-35.093 87.584 115.411 82.306 148.33 72.275 4.923 14.083 45.674 144.98 45.674 144.98M214.929 302.174a47.956 47.956 0 01-38.273-45.631" stroke="#8D8D8D" stroke-width="2" stroke-linecap="round" stroke-linejoin="round"/><path d="M149.768 322.051a146.239 146.239 0 0015.757-3.214c1.303 3.941 8.535 27.43 16.544 53.565M214.684 300.466c-2.758-13.761-5.075-23.573-6.327-25.958-14.717-27.286-97.404-30.331-117.018-30.009M237.724 431.804l-34.289 10.361" stroke="#8D8D8D" stroke-width="2" stroke-linecap="round" stroke-linejoin="round"/><path fill-rule="evenodd" clip-rule="evenodd" d="M83.456 49.176a17.526 17.526 0 1110.812 16.19 17.515 17.515 0 01-10.812-16.19z" fill="#6A3416"/><path fill-rule="evenodd" clip-rule="evenodd" d="M249.075 193.445c2.884-2.368 10.699-8.145 13.203-8.111 2.503.034 10.082 7.156 10.251 9.025.169 1.869-2.241 4.821-3.679 5.033-1.438.211-6.065-4.23-7.08-3.832-1.015.398-3.248 2.766-3.899 3.815-.651 1.048-11.672-3.604-8.796-5.93zM145.716 147.01l17.306 17.661s13.093-28.106 22.211-42.976c-1.844-2.656-5.075-13.237-4.661-15.224.415-1.988 9.939-20.748 12.239-19.657 2.301 1.091 4.449 4.754 3.273 8.458 1.362-4.88 3.663-11.63 5.693-12.298 2.03-.668 6.301.212 6.115 3.637.973-2.241 2.69-3.815 4.652-3.9 1.692-.075 5.142 1.371 5.379 3.502.288 2.665-3.518 9.025-3.983 9.93 1.776-2.419 1.759-2.537 2.825-2.537 2.139.076 5.759 3.256 3.992 7.849-1.768 4.593-10.505 26.026-17.272 26.939.313 4.162-19.851 62.226-19.851 62.226l-30.551-1.217-22.253-29.435 14.886-12.958z" fill="#F77F89"/><path fill-rule="evenodd" clip-rule="evenodd" d="M85.528 83.21C29.341 83.28 10.564 215.159 16.434 224.2c4.305 6.631 55.274 26.127 72.74 20.139 6.166-2.114 22.211-35.059 31.295-68.299 9.684-7.951 28.013-23.006 30.999-25.907-.846-6.369-15.571-32.031-30.821-43.399-5.27-12.036-15.047-23.522-35.119-23.522z" fill="#3B4161"/><path fill-rule="evenodd" clip-rule="evenodd" d="M100.06 172.816s26.82 33.833 33.874 36.582c7.054 2.748 83.245 1.869 88.811 1.218 5.565-.652 4.55 3.594 9.583 3.865 5.21.288 8.212-4.322 8.923-6.648 3.18 3.535 8.788 8.974 12.467 7.079 2.605-1.353 2.639-2.537.846-4.406 2.537 1.463 7.122 3.611 8.974 2.165 2.977-2.318 3.256-4.483 2.25-6.284-3.104-5.574-13.102-13.466-15.478-14.379-2.741-1.083-11.089 1.894-15.107 2.14-18.21 1.125-64.129-10.201-79.193-10.886-2.216-4.229-25.18-31.997-26.956-34.771-6.301 5.388-28.994 24.325-28.994 24.325zM92.574 56.086a26.61 26.61 0 1153.218-.018 26.61 26.61 0 01-53.218.018z" fill="#F77F89"/><path fill-rule="evenodd" clip-rule="evenodd" d="M96.143 50.292c.11 4.136-8.55 30.288-11.968 35.296 1.692 4 18.244 14.032 25.848 11.892.846-5.075 3.679-15.276 5.43-17.543 1.751-2.266-19.42-33.815-19.31-29.645z" fill="#F77F89"/><path fill-rule="evenodd" clip-rule="evenodd" d="M126.55 0a17.436 17.436 0 00-13.27 6.191 19.736 19.736 0 00-6.843-1.268A19.833 19.833 0 0087.22 30.66a11.63 11.63 0 00-3.755 8.542 11.883 11.883 0 009.727 11.605c.135-.651.135-1.108.346-1.852.576-1.98 9.186-5.6 10.15-4.948a6.714 6.714 0 002.538 1.116c.078.005.157.005.236 0a20.048 20.048 0 0017.5-10.361c.864.152 1.737.24 2.614.262a17.53 17.53 0 0010.818 16.191 17.526 17.526 0 106.707-33.716 17.516 17.516 0 00-5.151-12.385A17.533 17.533 0 00126.55 0z" fill="#6A3416"/><path fill-rule="evenodd" clip-rule="evenodd" d="M85.52 39.965a10.301 10.301 0 1120.602.05 10.301 10.301 0 01-20.602-.05z" fill="#F77F89"/><path d="M32.631 219.015c-1.108-16.358 14.523-77.13 26.22-95.213M67.267 138.189c2.724 5.624 16.198 30.533 27.616 39.321 4.356-4.127 35.753-30.88 35.753-30.88-4.009-7.452-23.286-30.813-29.536-36.539M88.97 171.827l37.741-31.185M116.341 98.985a8.155 8.155 0 01-1.167 2.335c-4.483 6.259-17.119 5.574-28.225-1.523M120.756 106.792c2.14 5.565 5.075 18.549 3.832 30.974M134.653 155.706l14.21-12.611M72.74 207.613c4.694-.736 30.322-.212 25.586 1.396-4.737 1.607-13.601 2.748-9.651 3.679a97.53 97.53 0 0011.511 1.979" stroke="#737999" stroke-width="2" stroke-linecap="round" stroke-linejoin="round"/><path d="M133.283 56.788c-.262 2.343.254 7.612 2.021 9.913" stroke="#B5545C" stroke-width="2" stroke-linecap="round" stroke-linejoin="round"/><path fill-rule="evenodd" clip-rule="evenodd" d="M119.023 53.675c.845-2.005 2.537-3.214 3.713-2.698 1.175.516 1.412 2.537.541 4.559-.871 2.021-2.537 3.214-3.713 2.698-1.176-.516-1.421-2.546-.541-4.559zM139.111 58.251c.845-2.005 2.537-3.214 3.713-2.707 1.175.508 1.412 2.538.541 4.56-.871 2.02-2.537 3.213-3.713 2.697-1.176-.516-1.421-2.554-.541-4.55z" fill="#B5545C"/><path d="M118.921 72.968a8.658 8.658 0 01-6.005-7.46M114.278 82.238a26.627 26.627 0 01-17.382-11.605M99.417 49.615a10.148 10.148 0 01-3.595.651 10.32 10.32 0 01-2.774-.38M93.834 46.173a6.031 6.031 0 117.613-5.82M184.387 187.559l-28.14-4.297-17.466-22.431M195.602 119.268c1.049-2.284 3.959-7.291 2.952-9.473-1.006-2.182-7.976-5.134-7.122-7.223.855-2.089 4.729-7.74 4.729-7.74M207.85 86.594l-5.337 10.911M214.193 96.135l-4.339 6.158M250.859 192.27l7.748 5.92M254.454 210.15l-5.785-5.345" stroke="#B5545C" stroke-width="2" stroke-linecap="round" stroke-linejoin="round"/><path d="M411.233 225.527l-78.246 240.059M474.763 225.527l-78.247 240.059M474.762 225.527L553 465.586M411.234 225.527l78.237 240.059" stroke="#6558F5" stroke-width="2" stroke-linecap="round" stroke-linejoin="round"/><path fill-rule="evenodd" clip-rule="evenodd" d="M275.735 69.238h121.281a9.464 9.464 0 019.464 9.464v100.153a9.464 9.464 0 01-9.464 9.465H275.735a9.465 9.465 0 01-9.448-9.465V78.702a9.466 9.466 0 019.448-9.464z" fill="#6558F5"/><path fill-rule="evenodd" clip-rule="evenodd" d="M275.735 69.23a9.46 9.46 0 00-8.744 5.835 9.452 9.452 0 00-.721 3.621v100.17a9.464 9.464 0 009.465 9.422h6.081c-.051-.575-.186-1.133-.186-1.692V69.23h-5.895zM319.565 158.792h40.945l22.93 52.153h-42.392l-21.483-52.153zM456.349 174.195h33.731v36.75h-33.731v-36.75z" fill="#6558F5"/><path d="M481.089 192.566a8.709 8.709 0 015.373-8.041 8.698 8.698 0 015.028-.495 8.696 8.696 0 016.839 6.838 8.698 8.698 0 01-.496 5.028 8.697 8.697 0 01-8.04 5.373 8.706 8.706 0 01-8.704-8.703v0zM456.349 180.454h33.444" stroke="#6558F5" stroke-width="2" stroke-linecap="round" stroke-linejoin="round"/></svg>