<svg height="512" width="512" xmlns="http://www.w3.org/2000/svg"><path d="M436.972 75.033c-100.033-100.04-261.937-100.048-361.978 0C-9.363 159.394-21.875 286.5 34.034 383.6L.693 491.583c-3.587 11.618 7.473 22.486 19.034 18.667l104.715-34.591c96.37 57.826 226.058 47.852 312.53-38.626 100.033-100.039 100.041-261.953 0-362zM136.003 182.041c8.283 0 14.998 6.715 14.998 14.998s-6.715 14.998-14.998 14.998-14.998-6.715-14.998-14.998 6.715-14.998 14.998-14.998zm179.97 148.984h-179.97c-8.283 0-14.998-6.715-14.998-14.998s6.715-14.998 14.998-14.998h179.97c8.283 0 14.998 6.715 14.998 14.998-.001 8.283-6.715 14.998-14.998 14.998zm59.99 0c-8.283 0-14.997-6.715-14.997-14.998s6.715-14.998 14.997-14.998 14.998 6.715 14.998 14.998-6.715 14.998-14.998 14.998zm0-59.994h-239.96c-8.283 0-14.998-6.715-14.998-14.998s6.715-14.998 14.998-14.998h239.96c8.283 0 14.998 6.715 14.998 14.998s-6.715 14.998-14.998 14.998zm0-59.993h-179.97c-8.283 0-14.998-6.715-14.998-14.998s6.715-14.998 14.998-14.998h179.97c8.283 0 14.998 6.715 14.998 14.998s-6.715 14.998-14.998 14.998z"/></svg>